<svg width="29" height="33" viewBox="0 0 29 33" fill="none" xmlns="http://www.w3.org/2000/svg">
<path d="M0.640381 0.213745H28.6403L26.0937 28.9643L14.6097 32.2137L3.18971 28.963L0.640381 0.213745ZM23.427 6.09773L5.8537 6.09373L6.1377 9.58973L19.6377 9.59239L19.2977 13.2137H10.4444L10.7644 16.6444H19.007L18.519 21.3417L14.639 22.4137L10.6977 21.3337L10.447 18.5204H6.96703L7.3537 23.6604L14.6404 25.931L21.8043 23.891L23.427 6.09773Z" fill="#56575A"/>
<path d="M0.640381 0.213745H28.6403L26.0937 28.9643L14.6097 32.2137L3.18971 28.963L0.640381 0.213745ZM23.427 6.09773L5.8537 6.09373L6.1377 9.58973L19.6377 9.59239L19.2977 13.2137H10.4444L10.7644 16.6444H19.007L18.519 21.3417L14.639 22.4137L10.6977 21.3337L10.447 18.5204H6.96703L7.3537 23.6604L14.6404 25.931L21.8043 23.891L23.427 6.09773Z" fill="#C7C8C9"/>
</svg>
