<svg width="32" height="33" viewBox="0 0 32 33" fill="none" xmlns="http://www.w3.org/2000/svg">
<path d="M0 0.213745H31.9999V32.2137H0V0.213745ZM29.3786 24.5817C29.1453 23.1217 28.1946 21.895 25.3746 20.751C24.3933 20.291 23.3026 19.971 22.9786 19.231C22.8573 18.791 22.8386 18.551 22.9173 18.291C23.1173 17.4297 24.1373 17.171 24.9373 17.411C25.4573 17.571 25.9373 17.971 26.2386 18.611C27.6173 17.7097 27.6173 17.7097 28.5786 17.111C28.2186 16.551 28.0399 16.3097 27.7973 16.071C26.9573 15.131 25.8386 14.651 24.0186 14.6924L23.0786 14.811C22.1773 15.031 21.3186 15.511 20.7986 16.151C19.2786 17.8724 19.7173 20.8724 21.5573 22.1124C23.3773 23.4724 26.0386 23.771 26.3786 25.0524C26.6986 26.6124 25.2186 27.1124 23.7573 26.9324C22.676 26.6924 22.0773 26.151 21.4173 25.151L18.9773 26.5524C19.2573 27.1924 19.5773 27.471 20.0573 28.031C22.3773 30.3723 28.1773 30.2523 29.2186 26.6924C29.2573 26.5724 29.5386 25.7524 29.3173 24.4924L29.3786 24.5817ZM17.4013 14.9217H14.404C14.404 17.5057 14.392 20.0737 14.392 22.6617C14.392 24.3044 14.476 25.8124 14.208 26.2764C13.768 27.195 12.6346 27.0777 12.12 26.9164C11.592 26.655 11.324 26.295 11.0133 25.7764C10.9293 25.6364 10.8666 25.515 10.844 25.515L8.41065 27.015C8.81732 27.855 9.41065 28.5777 10.176 29.0377C11.316 29.7177 12.848 29.9377 14.452 29.5777C15.496 29.2764 16.396 28.6564 16.8666 27.6964C17.5466 26.4564 17.4026 24.9364 17.396 23.235C17.412 20.4964 17.396 17.7564 17.396 14.9964L17.4013 14.9217Z" fill="#56575A"/>
<path d="M0 0.213745H31.9999V32.2137H0V0.213745ZM29.3786 24.5817C29.1453 23.1217 28.1946 21.895 25.3746 20.751C24.3933 20.291 23.3026 19.971 22.9786 19.231C22.8573 18.791 22.8386 18.551 22.9173 18.291C23.1173 17.4297 24.1373 17.171 24.9373 17.411C25.4573 17.571 25.9373 17.971 26.2386 18.611C27.6173 17.7097 27.6173 17.7097 28.5786 17.111C28.2186 16.551 28.0399 16.3097 27.7973 16.071C26.9573 15.131 25.8386 14.651 24.0186 14.6924L23.0786 14.811C22.1773 15.031 21.3186 15.511 20.7986 16.151C19.2786 17.8724 19.7173 20.8724 21.5573 22.1124C23.3773 23.4724 26.0386 23.771 26.3786 25.0524C26.6986 26.6124 25.2186 27.1124 23.7573 26.9324C22.676 26.6924 22.0773 26.151 21.4173 25.151L18.9773 26.5524C19.2573 27.1924 19.5773 27.471 20.0573 28.031C22.3773 30.3723 28.1773 30.2523 29.2186 26.6924C29.2573 26.5724 29.5386 25.7524 29.3173 24.4924L29.3786 24.5817ZM17.4013 14.9217H14.404C14.404 17.5057 14.392 20.0737 14.392 22.6617C14.392 24.3044 14.476 25.8124 14.208 26.2764C13.768 27.195 12.6346 27.0777 12.12 26.9164C11.592 26.655 11.324 26.295 11.0133 25.7764C10.9293 25.6364 10.8666 25.515 10.844 25.515L8.41065 27.015C8.81732 27.855 9.41065 28.5777 10.176 29.0377C11.316 29.7177 12.848 29.9377 14.452 29.5777C15.496 29.2764 16.396 28.6564 16.8666 27.6964C17.5466 26.4564 17.4026 24.9364 17.396 23.235C17.412 20.4964 17.396 17.7564 17.396 14.9964L17.4013 14.9217Z" fill="#C7C8C9"/>
</svg>
